[CENTER][CENTER][SIZE="5"][U][B]Arthur 2011 TS XViD AC-3-TA - MovieJockey.com[/B][/U][/SIZE][/CENTER]


 [URL=http://www.grinshare.com/][IMG]http://www.grinshare.com/img/UMMLMN.jpg[/IMG][/URL] 

[CENTER][SIZE="4"]Plot:
A drunken playboy stands to lose a wealthy inheritance when he falls for a woman his family doesn't like.
 
http://www.imdb.com/title/tt1334512/

General
Complete name                    : Arthur.2011.TS.XViD.AC-3-TA.avi
Format                           : AVI
Format/Info                      : Audio Video Interleave
File size                        : 706 MiB
Duration                         : 1h 46mn
Overall bit rate                 : 929 Kbps
Writing library                  : VirtualDub build 32661/release
Source                           : Arthur 2011 TS XViD - IMAGiNE [THANKS]

Video
ID                               : 0
Format                           : MPEG-4 Visual
Format profile                   : AdvancedSimple@L5
Format settings, BVOP            : Yes
Format settings, QPel            : No
Format settings, GMC             : No warppoints
Format settings, Matrix          : Default (H.263)
Muxing mode                      : Packed bitstream
Codec ID                         : XVID
Codec ID/Hint                    : XviD
Duration                         : 1h 46mn
Bit rate                         : 536 Kbps
Width                            : 640 pixels
Height                           : 324 pixels
Display aspect ratio             : 1.975
Frame rate                       : 25.000 fps
Resolution                       : 24 bits
Colorimetry                      : 4:2:0
Scan type                        : Progressive
Bits/(Pixel*Frame)               : 0.103
Stream size                      : 407 MiB (58%)
Writing library                  : XviD 1.1.2 (UTC 2006-11-01)

Audio
ID                               : 1
Format                           : AC-3
Format/Info                      : Audio Coding 3
Codec ID                         : 2000
Duration                         : 1h 46mn
Bit rate mode                    : Constant
Bit rate                         : 384 Kbps
Channel(s)                       : 2 channels
Channel positions                : L R
Sampling rate                    : 48.0 KHz
Stream size                      : 292 MiB (41%)
Alignment                        : Aligned on interleaves
Interleave, duration             : 40 ms (1.00 video frame)
Interleave, preload duration     : 512 ms

Notes:
Adjusted the gamma and reduced the red overall before sharpening just a touch and normalized the nice Line audio while converting to AC-3.

Greets:
all p2p groups[/SIZE][/CENTER]

[URL=http://www.grinshare.com/][IMG]http://www.grinshare.com/img/R1PRBY.png[/IMG][/URL] [URL=http://www.grinshare.com/][IMG]http://www.grinshare.com/img/SEKZMV.png[/IMG][/URL] [URL=http://www.grinshare.com/][IMG]http://www.grinshare.com/img/ON9M1K.png[/IMG][/URL] [URL=http://www.grinshare.com/][IMG]http://www.grinshare.com/img/W80TJ3.png[/IMG][/URL] [URL=http://www.grinshare.com/][IMG]http://www.grinshare.com/img/VQPC6A.png[/IMG][/URL]
[/CENTER]